<svg width="150" height="51" viewBox="0 0 150 51" fill="none" xmlns="http://www.w3.org/2000/svg">
<rect width="149.333" height="50.2858" rx="25.1429" fill="white"/>
<path d="M16.6543 27.9155C18.6963 32.7007 23.3373 35.9846 28.7209 35.9846C26.7717 31.2933 22.1307 27.9155 16.6543 27.9155Z" fill="#12B36A"/>
<path d="M28.7208 36.0784C32.7121 36.0784 36.1464 33.6389 37.7244 30.2612C33.7331 30.1673 30.2988 32.6068 28.7208 36.0784Z" fill="#12B36A"/>
<circle cx="27.7572" cy="19.4242" r="6.66171" fill="#133E90"/>
<path fill-rule="evenodd" clip-rule="evenodd" d="M28.7209 29.4168C34.1972 29.4168 38.5598 24.9131 38.5598 19.4711C38.6526 13.9353 34.1972 9.43164 28.7209 9.43164C23.3373 9.43164 18.882 13.9353 18.882 19.3773C18.882 24.9131 23.3373 29.4168 28.7209 29.4168ZM28.7209 24.3501C31.4126 24.3501 33.6403 22.0983 33.6403 19.3773C33.6403 16.6563 31.5055 14.4045 28.7209 14.4045C26.0291 14.4045 23.8014 16.6563 23.8014 19.3773C23.8014 22.0983 26.0291 24.3501 28.7209 24.3501Z" fill="#FEBE10"/>
<path d="M92.2097 19.3773H96.2938V35.5155H92.2097V29.2291H84.9697V35.5155H80.8857V19.3773H84.9697V25.3822H92.2097V19.3773ZM98.3358 23.4118H103.441V35.6093H107.618V23.4118H112.723V19.3773H98.3358V23.4118ZM132.679 32.0439V35.5155C131.937 35.8908 131.101 36.0785 130.08 36.0785C127.945 36.0785 126.832 35.1402 126.46 33.639L126.367 33.7328C125.161 35.3278 123.397 36.0785 121.169 36.0785C119.035 36.0785 117.178 35.234 115.693 33.639C114.208 31.9501 113.465 29.9797 113.465 27.5402C113.465 25.1945 114.208 23.1303 115.693 21.5353C117.271 19.8464 119.035 19.002 121.169 19.002C123.304 19.002 124.975 19.7526 126.182 21.16V19.4711H130.266V30.918C130.266 31.8562 130.73 32.4192 131.565 32.4192C132.029 32.3254 132.401 32.2316 132.679 32.0439ZM126.367 27.4464C126.367 26.1328 125.996 25.0069 125.068 24.1624C124.233 23.318 123.212 22.8489 121.912 22.8489C120.613 22.8489 119.592 23.2242 118.756 24.1624C117.921 25.0069 117.55 26.1328 117.55 27.4464C117.55 28.76 117.921 29.8859 118.756 30.7303C119.592 31.5748 120.613 31.9501 121.912 31.9501C123.212 31.9501 124.233 31.5748 125.068 30.7303C125.903 29.8859 126.367 28.8538 126.367 27.4464ZM46.9136 19.3773L46.8208 25.476C46.8208 27.9155 46.728 29.1353 46.3567 30.5427C46.0782 31.8562 45.4285 32.2316 44.4075 32.2316C44.129 32.2316 43.7577 32.2316 43.5721 32.1377V35.6093C43.8505 35.797 44.4075 35.8908 45.15 35.8908C48.0274 35.797 49.4197 34.3896 50.1623 31.9501C50.6264 30.1674 50.7192 28.8538 50.812 26.7896L50.9049 23.5056H56.0099V35.7031H60.094V19.3773H46.9136ZM66.7771 28.5723C67.2411 31.2933 69.376 32.2316 71.6037 32.2316C73.0888 32.2316 74.5739 31.6686 75.5021 30.8241L78.0083 33.4513C76.5231 35.1402 74.3883 36.0785 71.5109 36.0785C67.4268 36.0785 62.6002 33.639 62.6002 27.5402C62.6002 21.4415 67.334 19.002 71.3252 19.002C76.3375 19.002 78.4724 21.4415 78.4724 24.0686C78.4724 28.4785 72.9032 30.4488 66.7771 28.5723ZM73.9242 24.5377C73.9242 23.318 72.7175 22.755 71.3252 22.755C69.1904 22.755 67.4268 23.6933 66.8699 25.9451C71.1396 27.1649 73.9242 26.2266 73.9242 24.5377Z" fill="#133E90"/>
</svg>
