<svg width="166" height="39" viewBox="0 0 166 39" fill="none" xmlns="http://www.w3.org/2000/svg">
<path d="M0.610779 26.5732C3.50577 33.3572 10.0853 38.0128 17.7176 38.0128C14.9542 31.3619 8.37463 26.5732 0.610779 26.5732Z" fill="#12B36A"/>
<path d="M17.7175 38.1463C23.3759 38.1463 28.2447 34.6879 30.4818 29.8992C24.8234 29.7662 19.9545 33.2247 17.7175 38.1463Z" fill="#12B36A"/>
<ellipse cx="16.3514" cy="14.5356" rx="9.44431" ry="9.44428" fill="#133E90"/>
<path fill-rule="evenodd" clip-rule="evenodd" d="M17.7175 28.7015C25.4814 28.7015 31.6662 22.3166 31.6662 14.6016C31.7978 6.75352 25.4814 0.368652 17.7175 0.368652C10.0853 0.368652 3.76892 6.75352 3.76892 14.4686C3.76892 22.3166 10.0853 28.7015 17.7175 28.7015ZM17.7175 21.5185C21.5337 21.5185 24.6918 18.3261 24.6918 14.4686C24.6918 10.611 21.6653 7.41861 17.7175 7.41861C13.9014 7.41861 10.7432 10.611 10.7432 14.4686C10.7432 18.3261 13.9014 21.5185 17.7175 21.5185Z" fill="#FEBE10"/>
<path d="M107.726 14.4686H113.516V37.3477H107.726V28.4355H97.4616V37.3477H91.6716V14.4686H97.4616V22.9818H107.726V14.4686ZM116.411 20.1884H123.648V37.4807H129.57V20.1884H136.807V14.4686H116.411V20.1884ZM165.099 32.426V37.3477C164.046 37.8798 162.862 38.1458 161.415 38.1458C158.388 38.1458 156.809 36.8156 156.283 34.6873L156.151 34.8204C154.44 37.0817 151.94 38.1458 148.782 38.1458C145.755 38.1458 143.124 36.9486 141.018 34.6873C138.913 32.293 137.86 29.4996 137.86 26.0412C137.86 22.7157 138.913 19.7893 141.018 17.528C143.255 15.1337 145.755 13.9365 148.782 13.9365C151.809 13.9365 154.177 15.0007 155.888 16.9959V14.6016H161.678V30.8298C161.678 32.16 162.336 32.9581 163.52 32.9581C164.178 32.8251 164.704 32.6921 165.099 32.426ZM156.151 25.9081C156.151 24.0459 155.625 22.4497 154.309 21.2525C153.124 20.0554 151.677 19.3903 149.835 19.3903C147.992 19.3903 146.545 19.9223 145.361 21.2525C144.176 22.4497 143.65 24.0459 143.65 25.9081C143.65 27.7704 144.176 29.3666 145.361 30.5638C146.545 31.7609 147.992 32.293 149.835 32.293C151.677 32.293 153.124 31.7609 154.309 30.5638C155.493 29.3666 156.151 27.9034 156.151 25.9081ZM43.5094 14.4686L43.3778 23.1148C43.3778 26.5732 43.2462 28.3025 42.7198 30.2977C42.325 32.16 41.4039 32.6921 39.9564 32.6921C39.5616 32.6921 39.0353 32.6921 38.7721 32.5591V37.4807C39.1669 37.7468 39.9564 37.8798 41.0091 37.8798C45.0885 37.7468 47.0623 35.7515 48.115 32.293C48.773 29.7657 48.9046 27.9034 49.0362 24.977L49.1678 20.3214H56.4053V37.6137H62.1952V14.4686H43.5094ZM71.6698 27.5044C72.3277 31.3619 75.3543 32.6921 78.5125 32.6921C80.6179 32.6921 82.7234 31.894 84.0393 30.6968L87.5923 34.4213C85.4868 36.8156 82.4602 38.1458 78.3809 38.1458C72.5909 38.1458 65.7482 34.6873 65.7482 26.0412C65.7482 17.395 72.4593 13.9365 78.1177 13.9365C85.2236 13.9365 88.2502 17.395 88.2502 21.1195C88.2502 27.3713 80.3548 30.1647 71.6698 27.5044ZM81.8023 21.7846C81.8023 20.0554 80.0916 19.2572 78.1177 19.2572C75.0911 19.2572 72.5909 20.5874 71.8014 23.7799C77.8545 25.5091 81.8023 24.1789 81.8023 21.7846Z" fill="#133E90"/>
</svg>
